<svg xmlns="http://www.w3.org/2000/svg" fill="none" viewBox="0 0 24 24">
  <path fill="#2A4149" fill-rule="evenodd" d="M7.75 6.315a5 5 0 0 1 6.204 6.959A5.477 5.477 0 0 1 15 16.5a5.5 5.5 0 1 1-9.955-3.228A4.967 4.967 0 0 1 4.5 11c0-1.52.679-2.883 1.75-3.8V2.5h1.5v3.815Zm-1.49 7.84.54-.745-.419-.82a3.5 3.5 0 1 1 6.238 0l-.419.82.54.744a4 4 0 1 1-6.481 0ZM9.5 11.5a.5.5 0 1 0 0-1 .5.5 0 0 0 0 1Zm0 1.5a2 2 0 1 0 0-4 2 2 0 0 0 0 4Zm-.5.75a.75.75 0 0 0 0 1.5h1a.75.75 0 0 0 0-1.5H9Zm-1.5 2a.75.75 0 0 0 0 1.5H8a.75.75 0 0 0 0-1.5h-.5Zm3.5 0a.75.75 0 0 0 0 1.5h.5a.75.75 0 0 0 0-1.5H11Zm-2 2a.75.75 0 0 0 0 1.5h1a.75.75 0 0 0 0-1.5H9ZM16.809 14c0-.85-.471-1.59-1.17-1.974l.722-1.315a3.75 3.75 0 0 1 0 6.578l-.722-1.315A2.25 2.25 0 0 0 16.81 14Zm-.5-4.951a5.252 5.252 0 0 1 0 9.902l.5 1.415a6.753 6.753 0 0 0 0-12.732l-.5 1.415Z" clip-rule="evenodd"/>
</svg>