<svg xmlns="http://www.w3.org/2000/svg" fill="none" viewBox="0 0 24 24">
  <path fill="#231F20" fill-rule="evenodd" d="M12 2.25a2.75 2.75 0 0 0-2.71 2.282 8.756 8.756 0 0 0-6.508 7.718H2v1.5h20v-1.5h-.782a8.756 8.756 0 0 0-6.508-7.718A2.75 2.75 0 0 0 12 2.25Zm0 1.5c-.415 0-.784.203-1.01.515.168-.01.338-.015.51-.015h1c.171 0 .342.005.51.015A1.248 1.248 0 0 0 12 3.75Zm7.712 8.5a7.251 7.251 0 0 0-7.212-6.5h-1a7.251 7.251 0 0 0-7.212 6.5h15.424ZM18.849 15.29a2.18 2.18 0 0 0-2.912-.791l-1.77.965A1.75 1.75 0 0 0 12.5 14.25H6A1.75 1.75 0 0 0 4.25 16v2.28a1.75 1.75 0 0 0 1.197 1.66l3.351 1.117a5.75 5.75 0 0 0 4.39-.312l4.767-2.384a2.18 2.18 0 0 0 .894-3.07ZM12.75 16v.237l-.438.238c-.33.18-.7.275-1.077.275H9v1.5h2.235a3.75 3.75 0 0 0 1.796-.458l3.624-1.977a.68.68 0 1 1 .629 1.205l-4.767 2.383a4.25 4.25 0 0 1-3.245.23l-3.351-1.117a.25.25 0 0 1-.171-.237V16a.25.25 0 0 1 .25-.25h6.5a.25.25 0 0 1 .25.25Z" clip-rule="evenodd"/>
</svg>