<svg xmlns="http://www.w3.org/2000/svg" fill="none" viewBox="0 0 24 24">
                     <path fill="#231F20" fill-rule="evenodd"
                        d="M20.25 21v-.75H3.75V21h-1.5v-6.122l1.5-4.5V5c0-.966.784-1.75 1.75-1.75h13c.966 0 1.75.784 1.75 1.75v5.378l1.5 4.5V21h-1.5ZM5.5 4.75a.25.25 0 0 0-.25.25v5.25h1V8c0-.966.784-1.75 1.75-1.75h8c.966 0 1.75.784 1.75 1.75v2.25h1V5a.25.25 0 0 0-.25-.25h-13Zm10.75 5.5V8a.25.25 0 0 0-.25-.25h-3.25v2.5h3.5Zm-5 0v-2.5H8a.25.25 0 0 0-.25.25v2.25h3.5Zm-7.21 4 .834-2.5h14.252l.833 2.5H4.041Zm-.29 4.5v-3h16.5v3H3.75Z"
                        clip-rule="evenodd" />
                  </svg>