<svg xmlns="http://www.w3.org/2000/svg" fill="none" viewBox="0 0 24 24">
  <path fill="#231F20" fill-rule="evenodd" d="M4.25 6c0-.966.784-1.75 1.75-1.75h12c.966 0 1.75.784 1.75 1.75v.75H20c.966 0 1.75.784 1.75 1.75V19A1.75 1.75 0 0 1 20 20.75H4A1.75 1.75 0 0 1 2.25 19V8.5c0-.966.784-1.75 1.75-1.75h.25V6ZM6 5.75a.25.25 0 0 0-.25.25v4.75h12.5V6a.25.25 0 0 0-.25-.25H6Zm-1.75 2.5H4a.25.25 0 0 0-.25.25v3.523l.5-.75V8.25Zm1.151 4-1.333 2H20.24l-1.6-2H5.4Zm14.349-1.013.5.625V8.5a.25.25 0 0 0-.25-.25h-.25v2.987ZM3.75 19v-3.25h16.5V19a.25.25 0 0 1-.25.25H4a.25.25 0 0 1-.25-.25Z" clip-rule="evenodd"/>
</svg>