<svg xmlns="http://www.w3.org/2000/svg" fill="none" viewBox="0 0 24 24">
  <path fill="#231F20" d="M6.5 6.75a.75.75 0 0 0 0 1.5H7a.75.75 0 0 0 0-1.5h-.5Z"/>
  <path fill="#231F20" fill-rule="evenodd" d="M5 3.25A1.75 1.75 0 0 0 3.25 5v13c0 .966.784 1.75 1.75 1.75h.75V21h1.5v-1.25h9.5V21h1.5v-1.25H19A1.75 1.75 0 0 0 20.75 18V5A1.75 1.75 0 0 0 19 3.25H5ZM4.75 5A.25.25 0 0 1 5 4.75h14a.25.25 0 0 1 .25.25v4.75H4.75V5Zm0 6.25h14.5V18a.25.25 0 0 1-.25.25h-2.25V16.5a1.75 1.75 0 0 0-1.5-1.732V13h-1.5v1.768a1.75 1.75 0 0 0-1.5 1.732v1.75h-.5V16.5a1.75 1.75 0 0 0-1.5-1.732V13h-1.5v1.768a1.75 1.75 0 0 0-1.5 1.732v1.75H5a.25.25 0 0 1-.25-.25v-6.75Zm4 7h1.5V16.5a.25.25 0 0 0-.25-.25H9a.25.25 0 0 0-.25.25v1.75Zm5 0h1.5V16.5a.25.25 0 0 0-.25-.25h-1a.25.25 0 0 0-.25.25v1.75Z" clip-rule="evenodd"/>
</svg>