<svg xmlns="http://www.w3.org/2000/svg" fill="none" viewBox="0 0 24 24">
  <path fill="#231F20" fill-rule="evenodd" d="M5.25 6c0-.69.56-1.25 1.25-1.25H7c.605 0 1.11.43 1.225 1H7v1.5h4v-1.5H9.739A2.75 2.75 0 0 0 7 3.25h-.5A2.75 2.75 0 0 0 3.75 6v5.75H2.5v1.5h1.25V16a3.75 3.75 0 0 0 2 3.317V21h1.5v-1.258c.083.005.166.008.25.008h9c.084 0 .167-.003.25-.008V21h1.5v-1.683a3.75 3.75 0 0 0 2-3.317v-2.75h1.25v-1.5H5.25V6Zm0 10v-2.75h13.5V16a2.25 2.25 0 0 1-2.25 2.25h-9A2.25 2.25 0 0 1 5.25 16Z" clip-rule="evenodd"/>
</svg>