<svg xmlns="http://www.w3.org/2000/svg" fill="none" viewBox="0 0 24 24">
  <path fill="#231F20" d="M14.914 3.75a.664.664 0 0 0-.664.664V4.5h-1.5v-.086a2.164 2.164 0 0 1 3.695-1.53L17.5 3.939l.555-.555a2.164 2.164 0 0 1 3.695 1.53V5h-1.5v-.086a.664.664 0 0 0-1.134-.47l-.875.876a1.984 1.984 0 0 1 2.509 1.916V7.5h-1.5v-.264a.486.486 0 0 0-.92-.217l-.034.066a6.503 6.503 0 0 1-.064 3.333l-.373 1.307a2.82 2.82 0 0 0-.109.775h-1.5c0-.401.056-.8.166-1.187l.374-1.308c.277-.97.255-2-.064-2.956l-.173-.517a.412.412 0 0 0-.803.13V7h-1.5v-.338c0-1.056.856-1.912 1.912-1.912h.027l-.805-.805a.664.664 0 0 0-.47-.195Z"/>
  <path fill="#231F20" fill-rule="evenodd" d="M3 8.5a1 1 0 0 0 1 1v2a2 2 0 0 0 2 2h5a2 2 0 0 0 2-2v-2a1 1 0 0 0 1-1 5 5 0 0 0-5-5H8a5 5 0 0 0-5 5Zm9.465-.5h-7.93A3.5 3.5 0 0 1 8 5h1a3.5 3.5 0 0 1 3.465 3ZM5.5 9.5h6v2a.5.5 0 0 1-.5.5H9.25v-1a.75.75 0 0 0-1.5 0v1H6a.5.5 0 0 1-.5-.5v-2Z" clip-rule="evenodd"/>
  <path fill="#231F20" d="M2 17.666v-1.67a1.646 1.646 0 0 0 1.21-.405 3.312 3.312 0 0 1 2.226-.841c.79 0 1.598.273 2.225.84.293.265.691.41 1.107.41.416 0 .814-.145 1.107-.41a3.312 3.312 0 0 1 2.225-.84c.79 0 1.598.273 2.225.84.293.265.691.41 1.107.41.416 0 .814-.145 1.107-.41a3.312 3.312 0 0 1 2.225-.84c.79 0 1.598.273 2.225.84.268.243.625.385 1.003.406v1.668a3.304 3.304 0 0 1-2.121-.839 1.647 1.647 0 0 0-1.107-.409c-.416 0-.814.144-1.107.41a3.312 3.312 0 0 1-2.225.84c-.79 0-1.598-.273-2.225-.84a1.647 1.647 0 0 0-1.107-.41c-.416 0-.814.144-1.107.41a3.312 3.312 0 0 1-2.225.84c-.79 0-1.598-.273-2.225-.84a1.647 1.647 0 0 0-1.107-.41c-.416 0-.814.144-1.107.41a3.312 3.312 0 0 1-2.225.84H2ZM2 21.916v-1.67c.038.002.075.004.113.004a1.646 1.646 0 0 0 1.098-.41A3.312 3.312 0 0 1 5.436 19c.79 0 1.598.273 2.225.84.293.265.691.41 1.107.41.416 0 .814-.145 1.107-.41A3.312 3.312 0 0 1 12.1 19c.79 0 1.598.273 2.225.84.293.265.691.41 1.107.41.416 0 .814-.145 1.107-.41a3.312 3.312 0 0 1 2.225-.84c.79 0 1.598.273 2.225.84.268.243.625.384 1.003.407v1.667a3.304 3.304 0 0 1-2.121-.839 1.647 1.647 0 0 0-1.107-.409c-.416 0-.814.144-1.107.41a3.312 3.312 0 0 1-2.225.84c-.79 0-1.598-.273-2.225-.84a1.647 1.647 0 0 0-1.107-.41c-.416 0-.814.144-1.107.41a3.312 3.312 0 0 1-2.225.84c-.79 0-1.598-.273-2.225-.84a1.647 1.647 0 0 0-1.107-.41c-.416 0-.814.144-1.107.41a3.312 3.312 0 0 1-2.225.84H2Z"/>
</svg>