<svg xmlns="http://www.w3.org/2000/svg" fill="none" viewBox="0 0 24 24">
  <path fill="#231F20" fill-rule="evenodd" d="M8.25 11a3.751 3.751 0 0 1 3-3.675V6h1.5v1.325c1.712.347 3 1.86 3 3.675v.25h2.75v1.5h-5.75v7.75h-1.5v-7.75H5.5v-1.5h2.75V11Zm1.5.25h4.5V11a2.25 2.25 0 0 0-4.5 0v.25Z" clip-rule="evenodd"/>
  <path fill="#231F20" d="M2.75 7.5v13h1.5v-4.25H7.5a.25.25 0 0 1 .25.25v4h1.5v-4a1.75 1.75 0 0 0-1.75-1.75H4.25V7.5h-1.5ZM21.25 7.5v13h-1.5v-4.25H16.5a.25.25 0 0 0-.25.25v4h-1.5v-4c0-.966.784-1.75 1.75-1.75h3.25V7.5h1.5Z"/>
</svg>