<svg xmlns="http://www.w3.org/2000/svg" fill="none" viewBox="0 0 24 24">
  <path fill="#231F20" fill-rule="evenodd" d="M6 3.75a.25.25 0 0 0-.25.25v17.5h-1.5V4c0-.966.784-1.75 1.75-1.75h7.5c.966 0 1.75.784 1.75 1.75v1.25h2.25c.966 0 1.75.784 1.75 1.75v.75h1.25v1.5h-12v-1.5h1.25V7c0-.966.784-1.75 1.75-1.75h2.25V4a.25.25 0 0 0-.25-.25H6Zm5.25 4h6.5V7a.25.25 0 0 0-.25-.25h-6a.25.25 0 0 0-.25.25v.75Zm.25 2.5a.75.75 0 0 1 .75.75v.5a.75.75 0 0 1-1.5 0V11a.75.75 0 0 1 .75-.75Zm3 0a.75.75 0 0 1 .75.75v.5a.75.75 0 0 1-1.5 0V11a.75.75 0 0 1 .75-.75Zm3 0a.75.75 0 0 1 .75.75v.5a.75.75 0 0 1-1.5 0V11a.75.75 0 0 1 .75-.75Zm-6 3a.75.75 0 0 1 .75.75v.5a.75.75 0 0 1-1.5 0V14a.75.75 0 0 1 .75-.75Zm3 0a.75.75 0 0 1 .75.75v.5a.75.75 0 0 1-1.5 0V14a.75.75 0 0 1 .75-.75Zm3 0a.75.75 0 0 1 .75.75v.5a.75.75 0 0 1-1.5 0V14a.75.75 0 0 1 .75-.75Zm-6 3a.75.75 0 0 1 .75.75v.5a.75.75 0 0 1-1.5 0V17a.75.75 0 0 1 .75-.75Zm3 0a.75.75 0 0 1 .75.75v.5a.75.75 0 0 1-1.5 0V17a.75.75 0 0 1 .75-.75Zm3 0a.75.75 0 0 1 .75.75v.5a.75.75 0 0 1-1.5 0V17a.75.75 0 0 1 .75-.75Zm-6 3a.75.75 0 0 1 .75.75v.5a.75.75 0 0 1-1.5 0V20a.75.75 0 0 1 .75-.75Zm3 0a.75.75 0 0 1 .75.75v.5a.75.75 0 0 1-1.5 0V20a.75.75 0 0 1 .75-.75Zm3 0a.75.75 0 0 1 .75.75v.5a.75.75 0 0 1-1.5 0V20a.75.75 0 0 1 .75-.75Z" clip-rule="evenodd"/>
</svg>