<svg xmlns="http://www.w3.org/2000/svg" fill="none" viewBox="0 0 24 24">
  <path fill="#231F20" d="M12 6c-.55 0-1.02-.196-1.412-.587A1.93 1.93 0 0 1 10 4c0-.55.195-1.021.588-1.412.393-.39.863-.587 1.412-.588a1.92 1.92 0 0 1 1.413.588c.393.393.589.864.587 1.412a1.95 1.95 0 0 1-.587 1.413A1.9 1.9 0 0 1 12 6ZM9 21V9H4a.965.965 0 0 1-.712-.288A.972.972 0 0 1 3 8c0-.283.095-.52.288-.712A.97.97 0 0 1 4 7h16c.283 0 .521.096.713.288.192.192.288.43.287.712 0 .283-.097.52-.288.713A.957.957 0 0 1 20 9h-5v12a.968.968 0 0 1-.288.713A.964.964 0 0 1 14 22a.973.973 0 0 1-.712-.288A.965.965 0 0 1 13 21v-5h-2v5a.968.968 0 0 1-.288.713A.964.964 0 0 1 10 22a.973.973 0 0 1-.712-.288A.965.965 0 0 1 9 21Z"/>
</svg>