<svg xmlns="http://www.w3.org/2000/svg" fill="none" viewBox="0 0 20 18">
  <path fill="#231F20" d="M7.908 14.931h3.954v1.318H7.908v-1.318ZM5.272 16.25v1.318h9.226V16.25H13.18v-1.318l.713-.002.144-.004c1.754-.075 1.658-.796-.115-.796l-8.27.006c-1.753.075-1.658.796.114.796h.824v1.318H5.272Z"/>
  <path fill="#231F20" d="M3.295 1.751h13.18l.116.004c1.038.06 1.861.92 1.861 1.973v7.908l-.004.116a1.977 1.977 0 0 1-1.973 1.861H3.295l-.116-.003a1.977 1.977 0 0 1-1.861-1.974V3.728l.004-.116a1.977 1.977 0 0 1 1.973-1.86Zm9.885 13.18h3.295l.143-.002a3.295 3.295 0 0 0 3.152-3.293V3.728l-.003-.143A3.295 3.295 0 0 0 16.475.433H3.295l-.143.003A3.295 3.295 0 0 0 0 3.728v7.908l.003.143a3.295 3.295 0 0 0 3.292 3.152h9.885Z"/>
</svg>