<svg xmlns="http://www.w3.org/2000/svg" fill="none" viewBox="0 0 24 24">
  <path fill="#231F20" fill-rule="evenodd" d="M11 3.5c-.69 0-1.25.56-1.25 1.25h-1.5A2.75 2.75 0 0 1 13 2.863a2.75 2.75 0 0 1 4.75 1.887V6.5H22V8h-4.25v2.903c.33-.103.674-.153 1.014-.153.79 0 1.598.273 2.225.84.268.243.625.385 1.003.406v1.668a3.304 3.304 0 0 1-2.121-.839 1.647 1.647 0 0 0-1.107-.409c-.373 0-.733.116-1.014.332v.002h-.003l-.09.075a3.312 3.312 0 0 1-2.225.84c-.79 0-1.598-.272-2.225-.84a1.647 1.647 0 0 0-1.107-.409c-.416 0-.814.144-1.107.41a3.312 3.312 0 0 1-2.225.84c-.79 0-1.598-.273-2.225-.84a1.647 1.647 0 0 0-1.107-.41c-.416 0-.814.144-1.107.41a3.312 3.312 0 0 1-2.225.84H2v-1.67a1.646 1.646 0 0 0 1.21-.405 3.312 3.312 0 0 1 2.226-.841c.79 0 1.598.273 2.225.84.293.265.691.41 1.107.41.416 0 .814-.145 1.107-.41a3.312 3.312 0 0 1 2.375-.837V8H2V6.5h10.25V4.75c0-.69-.56-1.25-1.25-1.25ZM16.25 8v3.795a1.705 1.705 0 0 1-.818.204c-.416 0-.814-.144-1.107-.409a3.172 3.172 0 0 0-.575-.414V8h2.5Zm-2.5-3.25V6.5h2.5V4.75a1.25 1.25 0 1 0-2.5 0Z" clip-rule="evenodd"/>
  <path fill="#231F20" d="M2 17.666v-1.67a1.646 1.646 0 0 0 1.21-.405 3.312 3.312 0 0 1 2.226-.841c.79 0 1.598.273 2.225.84.293.265.691.41 1.107.41.416 0 .814-.145 1.107-.41a3.312 3.312 0 0 1 2.225-.84c.79 0 1.598.273 2.225.84.293.265.691.41 1.107.41.416 0 .814-.145 1.107-.41a3.312 3.312 0 0 1 2.225-.84c.79 0 1.598.273 2.225.84.268.243.625.385 1.003.406v1.668a3.304 3.304 0 0 1-2.121-.839 1.647 1.647 0 0 0-1.107-.409c-.416 0-.814.144-1.107.41a3.312 3.312 0 0 1-2.225.84c-.79 0-1.598-.273-2.225-.84a1.647 1.647 0 0 0-1.107-.41c-.416 0-.814.144-1.107.41a3.312 3.312 0 0 1-2.225.84c-.79 0-1.598-.273-2.225-.84a1.647 1.647 0 0 0-1.107-.41c-.416 0-.814.144-1.107.41a3.312 3.312 0 0 1-2.225.84H2ZM2 21.916v-1.67c.038.002.075.004.113.004a1.646 1.646 0 0 0 1.098-.41A3.312 3.312 0 0 1 5.436 19c.79 0 1.598.273 2.225.84.293.265.691.41 1.107.41.416 0 .814-.145 1.107-.41A3.312 3.312 0 0 1 12.1 19c.79 0 1.598.273 2.225.84.293.265.691.41 1.107.41.416 0 .814-.145 1.107-.41a3.312 3.312 0 0 1 2.225-.84c.79 0 1.598.273 2.225.84.268.243.625.384 1.003.407v1.667a3.304 3.304 0 0 1-2.121-.839 1.647 1.647 0 0 0-1.107-.409c-.416 0-.814.144-1.107.41a3.312 3.312 0 0 1-2.225.84c-.79 0-1.598-.273-2.225-.84a1.647 1.647 0 0 0-1.107-.41c-.416 0-.814.144-1.107.41a3.312 3.312 0 0 1-2.225.84c-.79 0-1.598-.273-2.225-.84a1.647 1.647 0 0 0-1.107-.41c-.416 0-.814.144-1.107.41a3.312 3.312 0 0 1-2.225.84H2Z"/>
</svg>