<svg xmlns="http://www.w3.org/2000/svg" fill="none" viewBox="0 0 24 24">
  <path fill="#231F20" fill-rule="evenodd" d="M7.582 20.75c-.281.591-.884 1-1.582 1H4A1.75 1.75 0 0 1 2.25 20V4c0-.966.784-1.75 1.75-1.75h3c.698 0 1.3.409 1.582 1H21.5v1.5h-.75v14.5h.75v1.5H7.582ZM4 3.75a.25.25 0 0 0-.25.25v7.184A4.251 4.251 0 0 0 7.25 7V4A.25.25 0 0 0 7 3.75H4Zm1.689 8.334A5.75 5.75 0 0 0 8.75 7V4.75h10.5v7.432c-.405.139-.79.357-1.122.658-.293.265-.69.41-1.107.41-.416 0-.814-.145-1.107-.41A3.312 3.312 0 0 0 13.69 12c-.79 0-1.598.273-2.225.84-.293.265-.69.41-1.107.41-.416 0-.814-.145-1.107-.41A3.312 3.312 0 0 0 7.025 12c-.393 0-.79.067-1.168.205a4.887 4.887 0 0 0-.168-.121Zm13.561 1.988-.003.003a3.312 3.312 0 0 1-2.226.84c-.79 0-1.598-.272-2.225-.84a1.647 1.647 0 0 0-1.107-.409c-.416 0-.814.144-1.107.41a3.312 3.312 0 0 1-2.225.84c-.79 0-1.598-.273-2.225-.84a1.63 1.63 0 0 0-.992-.406c.323.573.531 1.22.592 1.909.54.117 1.06.369 1.493.761.293.265.691.41 1.107.41.416 0 .814-.145 1.107-.41a3.312 3.312 0 0 1 2.225-.84c.79 0 1.598.273 2.225.84.293.265.691.41 1.107.41.416 0 .814-.145 1.107-.41.34-.307.732-.528 1.147-.666v-1.602Zm0 3.478a3.312 3.312 0 0 1-2.254.866c-.79 0-1.598-.273-2.225-.84a1.647 1.647 0 0 0-1.107-.41c-.416 0-.814.144-1.107.41a3.311 3.311 0 0 1-2.225.84c-.79 0-1.598-.273-2.225-.84a1.526 1.526 0 0 0-.357-.24v1.914h11.5v-1.7Zm-15.5-4.713V20c0 .138.112.25.25.25h2a.25.25 0 0 0 .25-.25v-4a3.251 3.251 0 0 0-2.5-3.163Z" clip-rule="evenodd"/>
  <path fill="#231F20" fill-rule="evenodd" d="M15 6.75a1.25 1.25 0 1 0 0 2.5 1.25 1.25 0 0 0 0-2.5ZM12.25 8a2.75 2.75 0 1 1 5.5 0 2.75 2.75 0 0 1-5.5 0Z" clip-rule="evenodd"/>
</svg>