<svg xmlns="http://www.w3.org/2000/svg" fill="none" viewBox="0 0 24 24">
  <path fill="#231F20" fill-rule="evenodd" d="M12 16.75a1.25 1.25 0 1 0 0 2.5 1.25 1.25 0 0 0 0-2.5ZM9.25 18a2.75 2.75 0 1 1 5.5 0 2.75 2.75 0 0 1-5.5 0ZM12 12.75a4.25 4.25 0 0 0-3.758 2.262l-1.325-.702A5.75 5.75 0 0 1 12 11.25a5.75 5.75 0 0 1 5.083 3.06l-1.325.702A4.25 4.25 0 0 0 12 12.75Z" clip-rule="evenodd"/>
  <path fill="#231F20" fill-rule="evenodd" d="M12 8.75a8.24 8.24 0 0 0-6.772 3.536l-1.23-.858A9.74 9.74 0 0 1 12 7.25a9.74 9.74 0 0 1 8.002 4.178l-1.23.858A8.24 8.24 0 0 0 12 8.75Z" clip-rule="evenodd"/>
  <path fill="#231F20" fill-rule="evenodd" d="M12 4.75a11.23 11.23 0 0 0-8.907 4.376L1.906 8.21A12.73 12.73 0 0 1 12 3.25a12.73 12.73 0 0 1 10.093 4.959l-1.186.917A11.23 11.23 0 0 0 12 4.75Z" clip-rule="evenodd"/>
</svg>