<svg xmlns="http://www.w3.org/2000/svg" fill="none" viewBox="0 0 24 24">
  <path fill="#231F20" fill-rule="evenodd" d="M6.25 4.5c0-.966.784-1.75 1.75-1.75h8c.966 0 1.75.784 1.75 1.75v9.25H20v1.5h-.75v5H20v1.5H4v-1.5h.75v-5H4v-1.5h2.25V4.5Zm1 10.75v5h-1v-5h1Zm1.5 5v-5h1v5h-1Zm2.5 0h1.5v-5h-1.5v5Zm3-5v5h1v-5h-1Zm2-1.5v-3.5h-3.5v3.5h3.5Zm-5 0h-3.5v-3.5h3.5v3.5Zm1.5-5h3.5V4.5a.25.25 0 0 0-.25-.25h-3.25v4.5Zm-1.5-4.5v4.5h-3.5V4.5A.25.25 0 0 1 8 4.25h3.25Zm5.5 11v5h1v-5h-1Z" clip-rule="evenodd"/>
</svg>